<svg width="380" height="86" viewBox="0 0 380 86" fill="none" xmlns="http://www.w3.org/2000/svg">
<path d="M86.9214 44.4134L83.6178 43.5345L86.5797 41.8258C86.5797 41.8258 86.6448 41.7607 86.661 41.72C86.6692 41.6793 86.661 41.6305 86.6447 41.5899L85.9694 40.4181C85.9206 40.3367 85.8148 40.3042 85.7334 40.353L82.7715 42.0618L83.6503 38.7581C83.6666 38.7174 83.6503 38.6686 83.634 38.628C83.6096 38.5873 83.569 38.5628 83.5283 38.5465L82.2182 38.1967C82.1287 38.1723 82.031 38.2292 82.0066 38.3187L81.1278 41.6223L79.4191 38.6686C79.3702 38.5872 79.2644 38.5547 79.1831 38.6035L78.0113 39.2789C78.0113 39.2789 77.9463 39.344 77.93 39.3846C77.9218 39.4253 77.93 39.4742 77.9463 39.5149L79.6225 42.4036L72.3561 40.3693L73.7313 39.6044C73.7313 39.6044 73.7964 39.5474 73.8126 39.4986C73.8208 39.4579 73.8126 39.409 73.7964 39.3684L73.3976 38.6523C73.3488 38.5709 73.243 38.5384 73.1617 38.5872L71.5017 39.5067L72.0225 37.684C72.0306 37.6433 72.0225 37.5945 72.0062 37.5538C71.9818 37.5131 71.9492 37.4887 71.9004 37.4725L71.1111 37.2446C71.0216 37.2202 70.924 37.269 70.8996 37.3667L70.3788 39.1894L69.4593 37.5294C69.4349 37.4887 69.4023 37.4562 69.3535 37.448C69.3047 37.4318 69.264 37.448 69.2233 37.4643L68.5073 37.863C68.5073 37.863 68.4422 37.92 68.4259 37.9688C68.4096 38.0095 68.4178 38.0583 68.4422 38.099L69.2152 39.4904L55.7647 35.723C55.7972 35.544 55.8216 35.365 55.8379 35.1779L66.4812 33.5179L65.3338 35.0721C65.3338 35.0721 65.2931 35.1534 65.3013 35.2022C65.3013 35.2429 65.3338 35.2917 65.3664 35.3161L66.2126 35.9427C66.2859 35.9997 66.3998 35.9833 66.4486 35.902L67.9702 33.8515L68.3527 36.374C68.3527 36.4147 68.3852 36.4635 68.4178 36.4879C68.4585 36.5123 68.4991 36.5285 68.548 36.5204L69.5895 36.3658C69.6872 36.3496 69.7522 36.2682 69.736 36.1706L69.3535 33.6481L71.4122 35.1616C71.4854 35.2185 71.5994 35.2022 71.6563 35.129L72.2829 34.2827C72.3398 34.2095 72.3236 34.0956 72.2503 34.0387L70.6717 32.875L77.4173 31.8254L75.5296 34.4292C75.4726 34.5024 75.4889 34.6164 75.5702 34.6734L76.6687 35.4708C76.742 35.5277 76.8559 35.5114 76.9128 35.4301L78.9227 32.6634L79.4597 36.0403C79.476 36.1298 79.5655 36.195 79.655 36.1787L80.9976 35.9671C81.0383 35.9671 81.079 35.9345 81.1116 35.902C81.136 35.8613 81.1522 35.8207 81.1441 35.7718L80.6071 32.395L83.3737 34.4048C83.3737 34.4048 83.455 34.4455 83.5038 34.4374C83.5527 34.4374 83.5852 34.4047 83.6178 34.3722L84.4152 33.2737C84.4722 33.1923 84.4559 33.0866 84.3745 33.0297L81.6079 31.0197L84.9848 30.4828C85.0824 30.4665 85.1394 30.377 85.1313 30.2875L84.9197 28.953C84.9197 28.9123 84.8871 28.8635 84.8546 28.8391C84.8139 28.8147 84.7732 28.7983 84.7244 28.8065L81.3475 29.3436L83.3574 26.5769C83.4143 26.5037 83.3981 26.3899 83.3167 26.3329L82.2182 25.5354C82.2182 25.5354 82.1368 25.4948 82.088 25.5029C82.0392 25.5029 81.9985 25.5354 81.9741 25.568L79.9724 28.3346L79.4353 24.9577C79.4191 24.8682 79.3377 24.803 79.24 24.8112L77.9056 25.0227C77.8079 25.039 77.751 25.1285 77.7591 25.218L78.2961 28.5949L75.5296 26.5851C75.5296 26.5851 75.4482 26.5444 75.3994 26.5525C75.3505 26.5525 75.318 26.5851 75.2854 26.6177L74.488 27.7162C74.4311 27.7894 74.4473 27.9033 74.5287 27.9603L77.2383 29.9213L70.0777 31.036L71.5261 29.0669C71.5831 28.9937 71.5668 28.8797 71.4936 28.8228L70.6473 28.1962C70.6473 28.1962 70.566 28.1556 70.5171 28.1637C70.4683 28.1637 70.4276 28.1962 70.4032 28.2288L68.8897 30.2875L68.5073 27.7649C68.5073 27.7161 68.4747 27.6755 68.4422 27.6511C68.4015 27.6267 68.3608 27.6104 68.312 27.6185L67.2704 27.7731C67.1809 27.7893 67.1158 27.8788 67.124 27.9683L67.5064 30.4991L65.4559 28.9774C65.3827 28.9205 65.2687 28.9367 65.2118 29.0099L64.5852 29.8562C64.5852 29.8562 64.5445 29.9376 64.5527 29.9864C64.5527 30.0352 64.5852 30.0677 64.6178 30.1002L66.6032 31.565L55.7647 33.2494C55.6996 32.9239 55.6019 32.6065 55.488 32.2973L61.0212 27.6104L60.9073 29.0262C60.9073 29.1238 60.9724 29.2052 61.0619 29.2133L61.8756 29.2785C61.9244 29.2785 61.9651 29.2703 61.9976 29.2378C62.0302 29.2052 62.0546 29.1645 62.0546 29.1238L62.2011 27.2279L63.4379 28.6682C63.503 28.7415 63.6088 28.7495 63.682 28.6844L64.3004 28.1556C64.3004 28.1556 64.3574 28.0823 64.3574 28.0335C64.3574 27.9928 64.3493 27.944 64.3167 27.9114L63.0799 26.4712L64.9758 26.6177C65.0165 26.6177 65.0653 26.6095 65.0979 26.5769C65.1304 26.5444 65.1548 26.5037 65.1548 26.463L65.2199 25.6493C65.2281 25.5517 65.1548 25.4703 65.0653 25.4622L63.682 25.3564L67.9946 21.7029L67.7017 25.096C67.6936 25.1937 67.7668 25.275 67.8563 25.2832L69.2071 25.3971C69.2559 25.3971 69.2966 25.3889 69.3373 25.3564C69.3698 25.3238 69.3942 25.2831 69.3942 25.2425L69.6871 21.8331L71.8841 24.445C71.9492 24.5183 72.055 24.5264 72.1283 24.4695L73.1617 23.5988C73.1617 23.5988 73.2186 23.5256 73.2268 23.4849C73.2268 23.4361 73.2186 23.3954 73.1861 23.3629L70.9891 20.7508L74.3904 21.0438C74.4392 21.0438 74.4799 21.0356 74.5124 21.0031C74.545 20.9705 74.5694 20.9298 74.5775 20.8892L74.6914 19.5384C74.6996 19.4407 74.6345 19.3594 74.5368 19.3512L71.1274 19.0583L73.7394 16.8614C73.8126 16.7963 73.8208 16.6904 73.7638 16.6172L72.8931 15.5756C72.8931 15.5756 72.8199 15.5187 72.7711 15.5187C72.7223 15.5187 72.6816 15.5268 72.649 15.5594L70.037 17.7564L70.33 14.3469C70.33 14.2981 70.3218 14.2575 70.2893 14.225C70.2567 14.1924 70.2161 14.1679 70.1754 14.1598L68.8246 14.0459C68.727 14.0377 68.6456 14.111 68.6375 14.2005L68.3445 17.6099L66.1394 14.9979C66.0824 14.9247 65.9685 14.9166 65.8953 14.9735L64.8619 15.8442C64.8619 15.8442 64.8049 15.9175 64.8049 15.9582C64.8049 15.9988 64.8131 16.0476 64.8456 16.0883L67.0426 18.7003L63.6413 18.4073C63.5437 18.3992 63.4623 18.4725 63.4542 18.562L63.3403 19.9128C63.3403 19.9616 63.3484 20.0022 63.3809 20.0347C63.4135 20.0673 63.4542 20.0918 63.503 20.0999L66.6439 20.3684L62.4615 23.908L62.5672 22.541C62.5672 22.4434 62.5021 22.362 62.4126 22.3539L61.5989 22.2887C61.5501 22.2887 61.5094 22.2969 61.4769 22.3294C61.4443 22.362 61.4199 22.4027 61.4199 22.4434L61.2734 24.3393L60.0366 22.899C60.0366 22.899 59.9634 22.8421 59.9227 22.8421C59.8739 22.8421 59.8332 22.8501 59.7925 22.8827L59.166 23.4116C59.0927 23.4767 59.0846 23.5825 59.1497 23.6558L60.3784 25.096L58.4824 24.9495C58.4417 24.9495 58.3929 24.9577 58.3604 24.9903C58.3278 25.0228 58.3034 25.0635 58.3034 25.1123L58.2383 25.926C58.2383 26.0237 58.3034 26.105 58.4011 26.1132L59.7437 26.219L54.5278 30.6292C54.3 30.3362 54.0396 30.0677 53.763 29.8155L56.0657 22.899L56.9445 24.5997C56.9852 24.6811 57.091 24.7136 57.1805 24.6729L58.0186 24.2416C58.0186 24.2416 58.0919 24.1847 58.1 24.144C58.1163 24.0952 58.1081 24.0544 58.0919 24.0138L57.0585 22.0202L59.1985 22.7037C59.2392 22.72 59.288 22.7118 59.3287 22.6956C59.3694 22.6711 59.4019 22.6386 59.4182 22.5979L59.703 21.7029C59.7274 21.6134 59.6786 21.5157 59.5891 21.4831L57.449 20.7997L59.4426 19.7662C59.524 19.7256 59.5565 19.6197 59.5158 19.5302L59.0846 18.6922C59.0602 18.6515 59.0276 18.619 58.9788 18.6027C58.9381 18.5864 58.8893 18.5945 58.8486 18.6107L57.2049 19.4652L59.0032 14.0622L60.4923 17.0566C60.4923 17.0566 60.5493 17.1299 60.5899 17.1461C60.6306 17.1624 60.6794 17.1543 60.7201 17.138L61.9325 16.5359C62.0139 16.4952 62.0546 16.3894 62.0058 16.308L60.4842 13.2485L63.7227 14.3308C63.7634 14.347 63.8122 14.3389 63.8529 14.3226C63.8936 14.2982 63.9261 14.2657 63.9424 14.225L64.3737 12.9392C64.4062 12.8497 64.3574 12.7521 64.2679 12.7195L61.0293 11.6373L64.0889 10.1157C64.1784 10.075 64.2109 9.96923 64.1702 9.88786L63.5681 8.67545C63.5681 8.67545 63.5111 8.60222 63.4704 8.58595C63.4298 8.56968 63.3809 8.57781 63.3403 8.58595L60.2807 10.1076L61.3711 6.86905C61.3874 6.82836 61.3792 6.77951 61.363 6.73883C61.3385 6.69814 61.306 6.6656 61.2653 6.64933L59.9797 6.21804C59.8902 6.18549 59.7925 6.23432 59.76 6.32383L58.6777 9.56236L57.1561 6.50282C57.1317 6.46213 57.0991 6.4296 57.0585 6.41332C57.0178 6.39705 56.969 6.40519 56.9283 6.42147L55.7158 7.0236C55.6263 7.06429 55.5938 7.17009 55.6345 7.25146L57.1561 10.311L53.9176 9.22066C53.8769 9.20439 53.8281 9.21253 53.7874 9.22881C53.7467 9.25322 53.7141 9.28576 53.6979 9.32645L53.2666 10.6121C53.2503 10.6528 53.2585 10.7016 53.2747 10.7423C53.2991 10.783 53.3317 10.8155 53.3724 10.8318L56.6109 11.9221L53.5514 13.4437C53.47 13.4844 53.4293 13.5902 53.47 13.6716L54.0722 14.884C54.0884 14.9247 54.1291 14.9572 54.1698 14.9735C54.2105 14.9898 54.2593 14.9816 54.3 14.9654L57.1724 13.5332L55.4066 18.8223L54.5848 17.2356C54.5848 17.2356 54.5278 17.1624 54.479 17.1461C54.4383 17.1299 54.3895 17.138 54.3488 17.1543L53.5107 17.5856C53.4293 17.6263 53.3968 17.732 53.4375 17.8215L54.4709 19.8151L52.3308 19.1397C52.2901 19.1234 52.2413 19.1315 52.2006 19.1478C52.16 19.1641 52.1274 19.2048 52.1193 19.2455L51.8345 20.1405C51.8019 20.23 51.8589 20.3277 51.9484 20.3602L54.0884 21.0438L52.0867 22.0771C52.0867 22.0771 52.0135 22.1341 52.0054 22.1748C51.9891 22.2155 51.9972 22.2643 52.0135 22.305L52.4447 23.1431C52.4854 23.2245 52.5912 23.257 52.6807 23.2163L54.2024 22.4271L52.1111 28.7088C51.2974 28.3427 50.4268 28.1556 49.5236 28.1556H49.5154L47.7009 21.5564L49.2388 22.4026C49.3201 22.4515 49.4259 22.4189 49.4747 22.3376L49.9141 21.532C49.9141 21.532 49.9385 21.4425 49.9304 21.4018C49.9141 21.3611 49.8897 21.3204 49.849 21.296L47.9368 20.2463L50.0362 19.636C50.0769 19.6197 50.1176 19.5954 50.142 19.5547C50.1664 19.514 50.1664 19.4651 50.1582 19.4244L49.8979 18.5457C49.8735 18.4562 49.7758 18.3992 49.6863 18.4236L47.5869 19.0339L48.6366 17.1217C48.6854 17.0403 48.6529 16.9345 48.5715 16.8857L47.7659 16.4464C47.7659 16.4464 47.6765 16.4219 47.6358 16.4301C47.5951 16.4382 47.5544 16.4707 47.53 16.5114L46.7163 17.9843L44.9994 11.7268L44.9017 11.3444L47.8555 13.0613C47.8555 13.0613 47.945 13.0939 47.9857 13.0776C48.0263 13.0695 48.067 13.0369 48.0914 12.9963L48.7668 11.8245C48.7668 11.8245 48.7994 11.7349 48.7831 11.6943C48.7749 11.6454 48.7424 11.6129 48.7017 11.5885L45.748 9.87157L49.0516 8.9928C49.1411 8.96839 49.1981 8.87074 49.1737 8.78123L48.8238 7.47118C48.8075 7.43049 48.7831 7.3898 48.7424 7.36539C48.7017 7.34098 48.6529 7.33283 48.6122 7.3491L45.3086 8.22797L47.0255 5.27422C47.0743 5.19285 47.0418 5.08703 46.9604 5.03821L45.7887 4.35473C45.7887 4.35473 45.6991 4.32216 45.6585 4.33844C45.6096 4.34657 45.5771 4.3791 45.5527 4.41979L43.8358 7.37354L42.957 4.06985C42.9326 3.98034 42.8349 3.92346 42.7454 3.94787L41.4353 4.29771C41.3946 4.30585 41.354 4.33838 41.3296 4.37906C41.3051 4.41975 41.297 4.4686 41.3133 4.50928L42.1921 7.81297L39.2383 6.09597C39.2383 6.09597 39.1488 6.07164 39.1081 6.07978C39.0593 6.08791 39.0268 6.12044 39.0024 6.16113L38.3188 7.33281C38.27 7.41418 38.2944 7.52 38.3839 7.56882L41.3377 9.28572L38.034 10.1645C37.9445 10.1889 37.8876 10.2866 37.912 10.3761L38.2619 11.6862C38.27 11.7269 38.3026 11.7675 38.3432 11.7919C38.3839 11.8163 38.4328 11.8245 38.4734 11.8082L41.7771 10.9294L40.0602 13.8832C40.0113 13.9645 40.0439 14.0704 40.1253 14.1192L41.297 14.8027C41.297 14.8027 41.3865 14.8352 41.4272 14.819C41.4679 14.8108 41.5086 14.7783 41.533 14.7376L43.1116 12.0198L44.9099 18.5701L43.3475 17.7075C43.2662 17.6587 43.1604 17.6913 43.1116 17.7727L42.664 18.5783C42.6478 18.6189 42.6396 18.6677 42.6478 18.7084C42.6559 18.7491 42.6884 18.7898 42.7291 18.8142L44.6413 19.8639L42.542 20.4742C42.5013 20.4823 42.4606 20.5148 42.4362 20.5555C42.4118 20.5962 42.4118 20.645 42.4199 20.6857L42.6722 21.5645C42.6966 21.654 42.7942 21.711 42.8837 21.6784L44.9831 21.0681L43.9334 22.9803C43.9334 22.9803 43.909 23.0699 43.9171 23.1106C43.9334 23.1512 43.9578 23.1919 43.9985 23.2163L44.8041 23.6558C44.8854 23.7046 44.9912 23.672 45.04 23.5906L45.87 22.0853L47.5951 28.359L37.8876 19.278H39.8974C39.9951 19.278 40.0683 19.2048 40.0683 19.1072V18.1144C40.0683 18.0168 39.9869 17.9436 39.8974 17.9436H37.497L39.1895 16.2511C39.2546 16.186 39.2546 16.072 39.1895 16.0069L38.4897 15.3072C38.4897 15.3072 38.4165 15.2583 38.3677 15.2583C38.3188 15.2583 38.2782 15.2746 38.2456 15.3072L36.5531 16.9996V14.5992C36.5531 14.5016 36.4799 14.4284 36.3822 14.4284H35.3895C35.2919 14.4284 35.2186 14.5016 35.2186 14.5992V16.7881L30.727 12.5894L29.4739 11.3281H32.8914C32.9891 11.3281 33.0623 11.2549 33.0623 11.1573V9.79836C33.0623 9.70072 32.9891 9.62752 32.8914 9.62752H29.4739L31.8906 7.21084C31.9557 7.14574 31.9557 7.03178 31.8906 6.96669L30.9304 6.00647C30.8653 5.94137 30.7514 5.94137 30.6863 6.00647L28.2696 8.42325V5.00563C28.2696 4.90799 28.1964 4.83478 28.0987 4.83478H26.7398C26.6422 4.83478 26.569 4.91612 26.569 5.00563V8.42325L24.1522 6.00647C24.0872 5.94137 23.9732 5.94137 23.9081 6.00647L22.948 6.96669C22.8829 7.03178 22.8829 7.14574 22.948 7.21084L25.3647 9.62752H21.9471C21.8495 9.62752 21.7762 9.70072 21.7762 9.79836V11.1573C21.7762 11.2549 21.8495 11.3281 21.9471 11.3281H25.3647L22.948 13.7448C22.8829 13.8099 22.8829 13.9239 22.948 13.989L23.9081 14.9491C23.9732 15.0142 24.0872 15.0142 24.1522 14.9491L26.569 12.5324V15.95C26.569 16.0477 26.6422 16.1209 26.7398 16.1209H28.0987C28.1964 16.1209 28.2696 16.0477 28.2696 15.95V12.8823L33.6807 17.9436H31.8743C31.7767 17.9436 31.7034 18.0249 31.7034 18.1144V19.1072C31.7034 19.2048 31.7848 19.278 31.8743 19.278H34.2747L32.5822 20.9705C32.5822 20.9705 32.5334 21.0438 32.5334 21.0926C32.5334 21.1414 32.5497 21.1821 32.5822 21.2147L33.282 21.9144C33.3471 21.9795 33.461 21.9795 33.5261 21.9144L35.2186 20.222V22.6224C35.2186 22.72 35.2919 22.7932 35.3895 22.7932H36.3822C36.4799 22.7932 36.5531 22.72 36.5531 22.6224V20.6288L45.8293 29.2947C45.5771 29.4737 45.333 29.6771 45.1051 29.8968L37.2203 26.463L38.7176 25.8772C38.7176 25.8772 38.7908 25.8284 38.8152 25.7877C38.8315 25.747 38.8315 25.6981 38.8152 25.6575L38.5141 24.8926C38.4816 24.8031 38.3758 24.7624 38.2944 24.795L36.5287 25.4866L37.2936 23.7453C37.3098 23.7046 37.3098 23.6557 37.2936 23.615C37.2773 23.5744 37.2448 23.5418 37.2041 23.5174L36.4555 23.1919C36.366 23.1512 36.2683 23.192 36.2276 23.2815L35.4709 25.0227L34.7792 23.2571C34.7467 23.1676 34.6409 23.1269 34.5595 23.1594L33.8028 23.4605C33.7621 23.4768 33.7214 23.5093 33.7051 23.55C33.6889 23.5907 33.6889 23.6395 33.7051 23.6802L34.291 25.1774L27.9197 22.4026L29.7668 21.711C29.8563 21.6785 29.9051 21.5808 29.8726 21.4913L29.5146 20.5392C29.4983 20.4985 29.4657 20.466 29.4251 20.4416C29.3844 20.4253 29.3355 20.4172 29.2949 20.4416L26.9758 21.3123L28.0011 19.0583C28.0418 18.9688 28.0011 18.8711 27.9116 18.8305L26.9839 18.4073C26.9433 18.391 26.8944 18.3829 26.8537 18.4073C26.8131 18.4236 26.7805 18.4562 26.7561 18.4969L25.7308 20.7508L24.8602 18.4318C24.8276 18.3422 24.73 18.3016 24.6405 18.3341L23.6803 18.6922C23.6396 18.7085 23.6071 18.741 23.5827 18.7817C23.5664 18.8224 23.5582 18.8711 23.5827 18.9118L24.3069 20.8404L18.0088 18.0981L21.6705 16.5196C21.7111 16.5033 21.7437 16.4708 21.76 16.4219C21.7762 16.3812 21.7762 16.3324 21.76 16.2917L21.1334 14.8352C21.1009 14.7457 20.9951 14.705 20.9056 14.7456L17.1707 16.3487L18.676 12.5731C18.7086 12.4836 18.6679 12.3859 18.5784 12.3453L17.1056 11.7594C17.0161 11.7269 16.9184 11.7594 16.8859 11.8571L15.3805 15.6327L13.7694 11.8977C13.7531 11.857 13.7206 11.8245 13.6799 11.8082C13.6392 11.7919 13.5904 11.7919 13.5497 11.8082L12.0931 12.4348C12.0036 12.4754 11.963 12.5731 12.0036 12.6626L13.631 16.4464L9.83105 14.884C9.79036 14.8677 9.74154 14.8677 9.70086 14.884C9.66017 14.9003 9.62763 14.9328 9.61135 14.9817L9.02548 16.4545C9.00921 16.4952 9.00921 16.5439 9.02548 16.5846C9.04176 16.6253 9.0743 16.6579 9.12312 16.6741L12.8987 18.1796L9.16381 19.7825C9.12313 19.7988 9.09058 19.8313 9.0743 19.8802C9.05803 19.9209 9.05803 19.9697 9.0743 20.0104L9.70086 21.4669C9.74154 21.5564 9.83919 21.597 9.9287 21.5564L13.6636 19.9534L12.1582 23.729C12.142 23.7697 12.142 23.8185 12.1582 23.8592C12.1745 23.8999 12.2071 23.9324 12.2559 23.9487L13.7287 24.5345C13.8182 24.5671 13.9158 24.5345 13.9565 24.4369L15.4619 20.6613L17.0649 24.3881C17.0974 24.4776 17.2032 24.5183 17.2927 24.4776L18.7492 23.8511C18.7899 23.8348 18.8225 23.8022 18.8388 23.7534C18.855 23.7127 18.855 23.6639 18.8388 23.6232L17.2358 19.8883L19.8315 20.9217L23.5908 22.5573L21.5809 23.314C21.5403 23.3303 21.5077 23.3628 21.4833 23.4035C21.467 23.4442 21.467 23.493 21.4833 23.5337L21.8413 24.4939C21.8739 24.5834 21.9715 24.6322 22.061 24.5916L24.3801 23.7208L23.3548 25.9748C23.3385 26.0155 23.3304 26.0643 23.3548 26.105C23.3711 26.1457 23.4036 26.1864 23.4443 26.2027L24.372 26.6258C24.4615 26.6665 24.5591 26.6258 24.5998 26.5363L25.6251 24.2823L26.4957 26.6014C26.512 26.6421 26.5445 26.6746 26.5852 26.699C26.6259 26.7153 26.6747 26.7234 26.7154 26.699L27.6756 26.3409C27.7651 26.3084 27.8139 26.2108 27.7732 26.1213L26.9921 24.03L33.2576 26.7559L32.1835 27.1791C32.094 27.2116 32.0533 27.3174 32.0859 27.3988L32.3869 28.1637C32.4032 28.2044 32.4358 28.237 32.4764 28.2614C32.5171 28.2776 32.566 28.2776 32.6066 28.2614L34.3724 27.5696L33.6156 29.311C33.5749 29.4005 33.6156 29.4982 33.7051 29.5388L34.4537 29.8643C34.4944 29.8806 34.5433 29.8806 34.5839 29.8643C34.6246 29.8481 34.6572 29.8155 34.6816 29.7748L35.4383 28.0335L36.13 29.7992C36.1625 29.8887 36.2602 29.9294 36.3497 29.8968L37.1146 29.5958C37.2041 29.5632 37.2447 29.4656 37.2122 29.3761L36.7891 28.302L43.9497 31.4185C43.852 31.5976 43.7625 31.7765 43.6893 31.9555L28.6114 30.6618L30.0842 29.3517C30.0842 29.3517 30.1411 29.2785 30.1411 29.2296C30.1411 29.1808 30.1248 29.1401 30.1004 29.1076L29.4576 28.3752C29.3925 28.302 29.2867 28.2939 29.2135 28.359L27.464 29.9131L27.6024 27.5778C27.6024 27.529 27.5942 27.4883 27.5617 27.4557C27.5291 27.4232 27.4884 27.3988 27.4396 27.3988L26.4632 27.3419C26.3737 27.3419 26.2842 27.4069 26.2842 27.5046L26.1458 29.8399L24.5916 28.0904C24.5266 28.0172 24.4208 28.009 24.3475 28.0741L23.6233 28.717C23.6233 28.717 23.5664 28.7902 23.5664 28.8391C23.5664 28.8798 23.5827 28.9286 23.6071 28.9611L24.8195 30.3281L9.57066 29.0181L11.9467 26.9024C11.9467 26.9024 12.0036 26.8292 12.0036 26.7885C12.0036 26.7397 11.9874 26.699 11.963 26.6664L11.0597 25.6493C10.9946 25.5761 10.8889 25.5761 10.8156 25.633L8.2606 27.9033L8.45589 24.4939C8.45589 24.3963 8.39079 24.3148 8.29315 24.3148L6.9424 24.2335C6.89357 24.2335 6.85289 24.2498 6.82034 24.2742C6.7878 24.3067 6.76339 24.3474 6.76339 24.3963L6.56809 27.8056L4.29786 25.2506C4.23276 25.1774 4.12698 25.1774 4.05375 25.2343L3.03662 26.1375C3.03662 26.1375 2.97966 26.2108 2.97966 26.2514C2.97966 26.3003 2.99593 26.341 3.02848 26.3735L5.29872 28.9286L1.88929 28.7251C1.79165 28.7251 1.71028 28.7902 1.71028 28.8878L1.62891 30.2386C1.62891 30.2874 1.64518 30.3281 1.66959 30.3607C1.70214 30.3932 1.74283 30.4176 1.79165 30.4176L5.20107 30.6129L2.64604 32.8832C2.64604 32.8832 2.58908 32.9564 2.58908 33.0052C2.58908 33.0541 2.60535 33.0948 2.62977 33.1273L3.53298 34.1363C3.59807 34.2095 3.70385 34.2177 3.77709 34.1526L6.33212 31.8823L6.12869 35.2917C6.12869 35.3405 6.14497 35.3812 6.16938 35.4138C6.20193 35.4463 6.24261 35.4708 6.29144 35.4708L7.64218 35.5521C7.73983 35.5521 7.8212 35.487 7.8212 35.3893L8.02462 31.98L10.2949 34.535C10.2949 34.535 10.3681 34.5919 10.4088 34.5919C10.4495 34.5919 10.4983 34.5757 10.5308 34.5513L11.5398 33.6481C11.6131 33.583 11.6212 33.4772 11.5561 33.4039L9.30214 30.8733L24.8276 32.2078L23.3141 33.5504C23.2409 33.6155 23.2409 33.7213 23.2979 33.7945L23.9488 34.5187C23.9488 34.5187 24.0221 34.5756 24.0627 34.5756C24.1116 34.5756 24.1522 34.5594 24.1848 34.535L25.9343 32.9808L25.7959 35.3161C25.7959 35.4138 25.861 35.4951 25.9587 35.4951L26.927 35.5521C26.9758 35.5521 27.0165 35.5358 27.049 35.5114C27.0816 35.4789 27.106 35.4382 27.106 35.3975L27.2443 33.0621L28.7985 34.8116C28.8636 34.8849 28.9694 34.893 29.0426 34.8279L29.7668 34.1851C29.7668 34.1851 29.8238 34.1119 29.8238 34.0631C29.8238 34.0143 29.8075 33.9736 29.7831 33.941L28.53 32.5333L43.1848 33.7945C43.1604 34.0061 43.1522 34.2095 43.1522 34.4211C43.1522 34.5187 43.1523 34.6327 43.1604 34.7466L35.3895 36.0811L36.3009 34.8361C36.3009 34.8361 36.3415 34.7547 36.3334 34.7058C36.3253 34.6652 36.3009 34.6245 36.2683 34.5919L35.5441 34.0549C35.5441 34.0549 35.4627 34.0142 35.4139 34.0224C35.3732 34.0224 35.3244 34.0549 35.3 34.0874L34.0306 35.8125L33.7133 33.6969C33.7133 33.648 33.6807 33.6073 33.6482 33.5829C33.6156 33.5585 33.5668 33.5423 33.518 33.5504L32.6229 33.6887C32.5253 33.705 32.4683 33.7945 32.4764 33.884L32.8019 35.9996L31.0769 34.7303C31.0036 34.6733 30.8897 34.6896 30.8328 34.7629L30.2957 35.4871C30.2957 35.4871 30.255 35.5684 30.2632 35.6172C30.2632 35.666 30.2957 35.7067 30.3283 35.7311L31.6546 36.7076L20.5394 38.6198L22.8259 35.2755C22.8259 35.2755 22.8585 35.1941 22.8503 35.1453C22.8503 35.0965 22.8178 35.0639 22.7771 35.0395L21.467 34.1444C21.3857 34.0875 21.2799 34.1118 21.2229 34.1932L18.9364 37.5457L18.1797 33.5504C18.1634 33.4528 18.0739 33.3958 17.9762 33.4121L16.4221 33.705C16.3732 33.7131 16.3407 33.7375 16.3081 33.7782C16.2837 33.8189 16.2756 33.8596 16.2837 33.9084L17.0405 37.9037L13.6799 35.6172C13.5985 35.5602 13.4927 35.5847 13.4439 35.6661L12.5488 36.9761C12.5488 36.9761 12.5163 37.0575 12.5244 37.1063C12.5325 37.147 12.557 37.1877 12.5976 37.2121L15.9827 39.523L11.963 40.2554C11.9223 40.2635 11.8816 40.2879 11.8572 40.3286C11.8328 40.3693 11.8165 40.41 11.8246 40.4588L12.1176 42.0129C12.1338 42.1105 12.2233 42.1675 12.321 42.1513L16.3081 41.3945L14.0216 44.7469C13.9647 44.8283 13.9891 44.9341 14.0623 44.9911L15.3724 45.8861C15.3724 45.8861 15.4537 45.9187 15.5026 45.9106C15.5514 45.9106 15.5839 45.8781 15.6165 45.8374L17.903 42.4768L18.6597 46.4721C18.6679 46.5128 18.6923 46.5615 18.733 46.5778C18.7737 46.6022 18.8143 46.6103 18.8632 46.6022L20.4173 46.3093C20.5069 46.293 20.5719 46.2035 20.5557 46.1059L19.7989 42.1105L23.1595 44.3971C23.2409 44.4541 23.3467 44.4296 23.3955 44.3482L24.2906 43.0382C24.2906 43.0382 24.3231 42.9569 24.315 42.908C24.3069 42.8674 24.2824 42.8267 24.2418 42.8023L20.8812 40.5157L23.2409 40.0681L31.9801 38.5628L30.963 39.9462C30.906 40.0194 30.9223 40.1332 30.9955 40.1821L31.7197 40.7191C31.7197 40.7191 31.8011 40.7598 31.8499 40.7517C31.8987 40.7517 31.9313 40.7191 31.9638 40.6866L33.2332 38.9615L33.5587 41.0772C33.5749 41.1749 33.6644 41.2399 33.754 41.2236L34.649 41.0853C34.6979 41.0853 34.7385 41.0527 34.763 41.0202C34.7874 40.9795 34.8036 40.9388 34.7955 40.89L34.47 38.7744L36.1951 40.0438C36.2683 40.1008 36.3822 40.0844 36.4392 40.0112L36.9762 39.287C36.9762 39.287 37.0169 39.2056 37.0088 39.1568C37.0088 39.108 36.9762 39.0674 36.9437 39.043L35.4872 37.9688L43.5347 36.5855C43.6812 36.9843 43.8683 37.3748 44.0961 37.7409L41.0936 41.5979L40.8006 39.3684C40.8006 39.3195 40.7762 39.2788 40.7355 39.2544C40.703 39.2219 40.6542 39.2138 40.6054 39.2219L39.5638 39.3602C39.4662 39.3683 39.4011 39.4579 39.4173 39.5556L39.751 42.0943L37.7167 40.5401C37.6435 40.4832 37.5296 40.4995 37.4726 40.5727L36.8298 41.4026C36.8298 41.4026 36.7891 41.484 36.7972 41.5328C36.7972 41.5817 36.8298 41.6224 36.8623 41.6468L38.8884 43.201L36.3497 43.5345C36.252 43.5427 36.1869 43.6322 36.2032 43.7298L36.3415 44.7714C36.3415 44.8202 36.3741 44.8527 36.4066 44.8853C36.4392 44.9178 36.488 44.926 36.5368 44.9179L38.7338 44.625L36.5043 47.4892L34.5351 49.7431L34.2585 45.6909C34.2585 45.642 34.234 45.6013 34.2015 45.5688C34.1689 45.5362 34.1201 45.5282 34.0794 45.5282L32.5009 45.6339C32.4032 45.6339 32.33 45.7234 32.3381 45.8129L32.6148 49.8652L29.5552 47.188C29.482 47.1229 29.3762 47.1311 29.3111 47.2043L28.2696 48.4006C28.2696 48.4006 28.2208 48.4818 28.2289 48.5225C28.2289 48.5714 28.2533 48.612 28.2859 48.6365L31.3454 51.3136L27.2931 51.5902C27.1955 51.5902 27.1223 51.6797 27.1304 51.7692L27.2362 53.3478C27.2362 53.3967 27.2606 53.4374 27.2931 53.4699C27.3257 53.5025 27.3745 53.5105 27.4152 53.5105L31.4674 53.2339L28.7904 56.2934C28.7904 56.2934 28.7415 56.3748 28.7497 56.4155C28.7497 56.4643 28.7741 56.505 28.8066 56.5295L29.9946 57.5709C29.9946 57.5709 30.076 57.6198 30.1248 57.6116C30.1737 57.6116 30.2143 57.5873 30.2388 57.5547L32.9077 54.43L33.1844 58.5474C33.1844 58.6451 33.2657 58.7101 33.3634 58.7101L34.942 58.6043C35.0396 58.6043 35.1128 58.5148 35.1047 58.4172L34.8281 54.365L37.8876 57.0421C37.8876 57.0421 37.969 57.0909 38.0096 57.0827C38.0503 57.0827 38.0991 57.0584 38.1236 57.0258L39.1651 55.8297C39.2302 55.7564 39.2221 55.6506 39.1488 55.5855L36.0893 52.9084L40.1415 52.6318C40.2392 52.6318 40.3124 52.5423 40.3043 52.4528L40.1985 50.8741C40.1985 50.8335 40.1741 50.7846 40.1415 50.7602C40.109 50.7277 40.0602 50.7196 40.0195 50.7196L36.1544 50.9799L40.2066 45.7722L40.4914 47.9448C40.4914 47.9855 40.524 48.0344 40.5565 48.0588C40.5891 48.0832 40.6379 48.0995 40.6867 48.0913L41.7283 47.953C41.8259 47.9448 41.891 47.8553 41.8747 47.7577L41.5411 45.2189L43.5672 46.7731C43.6405 46.8301 43.7544 46.8138 43.8113 46.7406L44.4542 45.9024C44.4542 45.9024 44.4949 45.821 44.4867 45.7722C44.4867 45.7315 44.4542 45.6828 44.4216 45.6584L42.3955 44.1042L44.9343 43.7705C45.0319 43.7542 45.097 43.6729 45.0807 43.5752L44.9424 42.5337C44.9424 42.4849 44.918 42.4442 44.8773 42.4197C44.8366 42.3953 44.7959 42.3791 44.7471 42.3873L42.6071 42.672L45.3167 39.1894C46.049 39.8159 46.9197 40.2797 47.8555 40.5239L47.9612 46.35L46.0816 44.4703C46.0165 44.4052 45.9026 44.4052 45.8375 44.4703L45.0075 45.3003C45.0075 45.3003 44.9587 45.3735 44.9587 45.4224C44.9587 45.4712 44.9749 45.5119 45.0075 45.5444L47.0662 47.603H44.1612C44.0636 47.603 43.9904 47.6763 43.9904 47.774V48.9457C43.9904 49.0433 44.0636 49.1166 44.1612 49.1166H47.0662L45.0075 51.1752C44.9424 51.2403 44.9424 51.3543 45.0075 51.4194L45.8375 52.2494C45.8375 52.2494 45.9107 52.2981 45.9595 52.2981C46.0083 52.2981 46.049 52.2819 46.0816 52.2494L48.0263 50.3046L48.0752 53.0386C48.0752 53.0386 48.0752 53.0711 48.0752 53.0955L48.1565 57.0664L45.2597 54.4057C45.2597 54.4057 45.1865 54.3568 45.1377 54.365C45.0889 54.365 45.0482 54.3893 45.0156 54.4219L43.9415 55.5855C43.8764 55.6588 43.8846 55.7646 43.9497 55.8297L46.9441 58.5799L42.8837 58.7509C42.8349 58.7509 42.7942 58.7752 42.7617 58.8078C42.7291 58.8403 42.7129 58.8892 42.7129 58.9298L42.7779 60.5165C42.7779 60.6142 42.8675 60.6875 42.957 60.6793L47.0173 60.5085L44.267 63.5029C44.2019 63.5761 44.2101 63.6819 44.2752 63.747L45.4388 64.8211C45.4388 64.8211 45.512 64.8699 45.5608 64.8618C45.6096 64.8618 45.6503 64.8373 45.6829 64.8048L48.4332 61.8104L52.5261 73.3568L48.8156 72.1038C48.7749 72.0875 48.7261 72.0955 48.6854 72.1118C48.6448 72.1362 48.6122 72.1688 48.5959 72.2095L48.0914 73.7067C48.0589 73.7963 48.1077 73.8939 48.1972 73.9265L52.046 75.2284L48.4088 77.0266C48.3681 77.051 48.3355 77.0836 48.3193 77.1243C48.303 77.1649 48.3111 77.2138 48.3274 77.2545L49.0272 78.6703C49.0679 78.7598 49.1737 78.7924 49.255 78.7517L52.9004 76.9534L51.5985 80.8022C51.566 80.8917 51.6148 80.9894 51.7043 81.0219L53.2015 81.5264C53.2422 81.5427 53.291 81.5346 53.3317 81.5183C53.3724 81.502 53.4049 81.4613 53.4131 81.4206L54.6255 77.824L56.6109 82.0146C56.6109 82.0146 56.6679 82.0879 56.7086 82.1041C56.7248 82.1041 56.7493 82.1123 56.7655 82.1123C56.7899 82.1123 56.8143 82.1123 56.8388 82.096L58.2383 81.4288C58.279 81.4125 58.3116 81.3718 58.3278 81.3312C58.3441 81.2905 58.336 81.2416 58.3278 81.2009L56.1308 76.6116L60.297 78.0193C60.3865 78.0519 60.4841 78.003 60.5167 77.9135L61.0293 76.4163C61.0456 76.3757 61.0375 76.3268 61.0212 76.2861C61.0049 76.2454 60.9642 76.2129 60.9235 76.1966L57.0747 74.8947L60.712 73.0965C60.8015 73.0558 60.8341 72.95 60.7934 72.8686L60.0936 71.4446C60.0936 71.4446 60.0366 71.3714 59.9959 71.3551C59.9552 71.3389 59.9064 71.347 59.8657 71.3633L56.2285 73.1615L57.5304 69.3127C57.563 69.2232 57.5141 69.1256 57.4246 69.093L55.9274 68.5885C55.8867 68.5722 55.8379 68.5804 55.7972 68.5967C55.7565 68.6129 55.724 68.6536 55.7077 68.6943L54.3244 72.7873L50.3617 61.7127L53.3642 64.4712C53.4375 64.5363 53.5433 64.5282 53.6084 64.4631L54.6824 63.2994C54.6824 63.2994 54.7313 63.218 54.7313 63.1774C54.7313 63.1285 54.7069 63.0878 54.6743 63.0553L51.6799 60.3051L55.7403 60.1341C55.7891 60.1341 55.8298 60.1097 55.8623 60.0772C55.8949 60.0446 55.9111 59.9958 55.903 59.9551L55.8379 58.3684C55.8379 58.2708 55.7565 58.1975 55.6589 58.2056L51.5985 58.3765L54.3488 55.3821C54.3488 55.3821 54.3976 55.3007 54.3976 55.26C54.3976 55.2112 54.3732 55.1705 54.3407 55.138L53.1771 54.0639C53.1771 54.0639 53.1038 54.015 53.055 54.015C53.0143 54.015 52.9655 54.0395 52.9411 54.0721L50.1745 57.0827L49.9955 53.1851L49.9467 50.4592L51.7368 52.2494C51.8019 52.3145 51.9158 52.3145 51.9809 52.2494L52.8109 51.4194C52.876 51.3543 52.876 51.2403 52.8109 51.1752L50.7522 49.1166H53.6653C53.763 49.1166 53.8362 49.0352 53.8362 48.9457V47.774C53.8362 47.6763 53.763 47.603 53.6653 47.603H50.7522L52.8109 45.5444C52.8109 45.5444 52.8597 45.4712 52.8597 45.4224C52.8597 45.3735 52.8435 45.3328 52.8109 45.3003L51.9809 44.4703C51.9158 44.4052 51.8019 44.4052 51.7368 44.4703L49.8735 46.3337L49.7758 40.7273C50.264 40.7029 50.7441 40.6296 51.2079 40.4994L57.6687 50.6789L55.2114 50.1988C55.1137 50.1825 55.0242 50.2395 55.0079 50.3372L54.7964 51.4357C54.7882 51.4763 54.7964 51.5251 54.8208 51.5658C54.8452 51.6065 54.8859 51.6309 54.9347 51.6391L57.6443 52.168L55.3578 53.7058C55.3578 53.7058 55.2927 53.7709 55.2846 53.8116C55.2764 53.8604 55.2846 53.9011 55.309 53.9418L55.9355 54.8695C55.9925 54.9508 56.0983 54.9671 56.1797 54.9182L58.4662 53.3804L57.9373 56.09C57.9291 56.1388 57.9373 56.1796 57.9617 56.2202C57.9861 56.2609 58.0268 56.2853 58.0675 56.2934L59.1741 56.5132C59.2717 56.5294 59.3531 56.4724 59.3775 56.3748L59.8332 54.0639L65.9116 63.6412L62.1116 62.8844C62.0139 62.8682 61.9244 62.9252 61.9081 63.0228L61.5989 64.577C61.5908 64.6258 61.5989 64.6664 61.6233 64.7071C61.6477 64.7478 61.6884 64.7723 61.7291 64.7804L65.7163 65.5778L62.3394 67.8318C62.258 67.8806 62.2418 67.9945 62.2906 68.0677L63.1694 69.3859C63.1694 69.3859 63.2345 69.4511 63.2752 69.4592C63.324 69.4592 63.3647 69.4592 63.4053 69.4348L66.7822 67.1808L65.9848 71.168C65.9685 71.2656 66.0255 71.3551 66.1231 71.3714L67.6773 71.6806C67.718 71.6806 67.7668 71.6806 67.8075 71.6562C67.8482 71.6318 67.8726 71.5911 67.8807 71.5504L68.6782 67.5632L70.9321 70.9401C70.9891 71.0215 71.0949 71.0377 71.1762 70.9889L72.4944 70.1101C72.4944 70.1101 72.5595 70.045 72.5677 69.9962C72.5758 69.9474 72.5677 69.9068 72.5433 69.8661L70.2405 66.4729L74.2764 67.2785C74.3659 67.3029 74.4636 67.2377 74.4799 67.1401L74.7891 65.586C74.7972 65.5372 74.7891 65.4965 74.7647 65.4558C74.7403 65.4151 74.6996 65.3907 74.6508 65.3826L70.6636 64.585L74.0405 62.3312C74.1218 62.2823 74.1381 62.1684 74.0893 62.0952L73.2105 60.777C73.1535 60.6956 73.0478 60.6793 72.9745 60.7281L69.5976 62.9821L70.3951 59.003C70.4032 58.9542 70.3951 58.9136 70.3707 58.8729C70.3462 58.8404 70.3056 58.8078 70.2649 58.7996L68.7107 58.4904C68.6131 58.4741 68.5236 58.5311 68.5073 58.6288L67.6936 62.7217L66.115 60.4027L61.3467 52.8921L63.8529 53.3804C63.9424 53.3967 64.0319 53.3397 64.0563 53.2421L64.2679 52.1436C64.276 52.1029 64.2679 52.054 64.2435 52.0134C64.2191 51.9727 64.1784 51.9483 64.1295 51.9401L61.4199 51.4112L63.7064 49.8733C63.7878 49.8163 63.8041 49.7105 63.7552 49.6373L63.1287 48.7016C63.1287 48.7016 63.0636 48.6365 63.0229 48.6283C62.9822 48.6202 62.9334 48.6283 62.8927 48.6528L60.6062 50.1907L61.1351 47.4811C61.1514 47.3916 61.0944 47.2939 60.9968 47.2776L59.8983 47.0579C59.8495 47.0498 59.8088 47.0579 59.7681 47.0824C59.7274 47.1068 59.703 47.1474 59.6949 47.188L59.2311 49.5478L52.9737 39.702C53.2259 39.5393 53.47 39.3521 53.6897 39.1568L58.1081 42.3465L56.5051 42.6232C56.4075 42.6394 56.3505 42.729 56.3668 42.8266L56.5133 43.6892C56.5214 43.738 56.5458 43.7706 56.5865 43.8031C56.6272 43.8275 56.6679 43.8356 56.7167 43.8356L58.7428 43.4857L57.5548 45.1701C57.4979 45.2514 57.5223 45.3573 57.5955 45.4142L58.3116 45.9187C58.3116 45.9187 58.3929 45.9513 58.4418 45.9513C58.4906 45.9432 58.5231 45.9187 58.5557 45.878L59.7437 44.1937L60.0936 46.2198C60.1017 46.2686 60.1261 46.3093 60.1668 46.3337C60.1994 46.3581 60.2482 46.3663 60.297 46.3663L61.1595 46.2198C61.249 46.2035 61.3141 46.114 61.2979 46.0245L61.0293 44.4784L67.0508 48.8317L64.6422 49.1898C64.5934 49.1898 64.5527 49.2223 64.5283 49.2549C64.4957 49.2956 64.4876 49.3363 64.4957 49.3851L64.6585 50.4754C64.6747 50.5731 64.7561 50.6382 64.8537 50.622L67.5308 50.2232L65.9197 52.3958C65.8627 52.469 65.879 52.583 65.9522 52.6399L66.8392 53.299C66.8392 53.299 66.9206 53.3397 66.9694 53.3316C67.0101 53.3316 67.0507 53.299 67.0833 53.2665L68.6944 51.0939L69.0931 53.771C69.0931 53.8198 69.1257 53.8605 69.1582 53.8849C69.1989 53.9093 69.2396 53.9255 69.2884 53.9174L70.3788 53.7547C70.4764 53.7384 70.5415 53.6571 70.5253 53.5594L70.1591 51.0857L76.5874 55.7319L73.4383 56.3179C73.3488 56.3342 73.2837 56.4237 73.3 56.5132L73.5522 57.8477C73.5604 57.8965 73.5848 57.929 73.6255 57.9616C73.6662 57.986 73.7068 57.9941 73.7557 57.9859L77.1163 57.3593L75.1797 60.183C75.1797 60.183 75.1471 60.2643 75.1552 60.3131C75.1634 60.3619 75.1878 60.3945 75.2285 60.427L76.3514 61.192C76.4246 61.2489 76.5385 61.2245 76.5874 61.1512L78.5158 58.3359L79.1424 61.6965C79.1587 61.786 79.2482 61.851 79.3458 61.8347L80.6803 61.5825C80.7291 61.5744 80.7617 61.55 80.7861 61.5093C80.8105 61.4686 80.8186 61.4279 80.8105 61.3791L80.1839 58.0185L83.0075 59.9551C83.0075 59.9551 83.0889 59.9877 83.1377 59.9796C83.1784 59.9796 83.2191 59.9469 83.2516 59.9062L84.0165 58.7915C84.0734 58.7101 84.049 58.6044 83.9758 58.5474L81.1604 56.6189L84.521 55.9924C84.5617 55.9924 84.6024 55.9599 84.6349 55.9192C84.6593 55.8785 84.6675 55.8378 84.6593 55.789L84.4071 54.4545C84.3908 54.3568 84.3013 54.2998 84.2036 54.3161L80.843 54.9427L82.7715 52.1191C82.8285 52.0378 82.8041 51.932 82.7308 51.8831L81.6079 51.1183C81.6079 51.1183 81.5266 51.0857 81.4777 51.0857C81.437 51.0939 81.3964 51.1182 81.3719 51.1589L79.4435 53.9744L78.8169 50.6138C78.8006 50.5243 78.7111 50.4592 78.6135 50.4754L77.279 50.7196C77.2302 50.7277 77.1976 50.7521 77.1651 50.7928C77.1407 50.8335 77.1325 50.8742 77.1407 50.923L77.7591 54.2266L71.4285 49.6536L73.6824 49.32C73.7313 49.32 73.7719 49.2874 73.7964 49.2549C73.8208 49.2142 73.837 49.1735 73.8289 49.1247L73.6662 48.0343C73.6499 47.9367 73.5685 47.8798 73.4709 47.8879L70.7938 48.2866L72.4049 46.114C72.4049 46.114 72.4456 46.0326 72.4375 45.9838C72.4375 45.935 72.4049 45.8943 72.3724 45.8698L71.4854 45.2108C71.4122 45.1538 71.2983 45.1702 71.2413 45.2515L69.6302 47.424L69.2315 44.7469C69.2152 44.6493 69.1257 44.5842 69.0362 44.6005L67.9458 44.7632C67.897 44.7632 67.8563 44.7958 67.8319 44.8284C67.8075 44.8691 67.7912 44.9097 67.7994 44.9585L68.1411 47.2776L62.1197 42.9242L63.6902 42.6476C63.7797 42.6313 63.8448 42.5418 63.8285 42.4523L63.682 41.5899C63.6739 41.5492 63.6495 41.5085 63.6088 41.4759C63.5681 41.4515 63.5274 41.4352 63.4786 41.4433L61.4525 41.7933L62.6405 40.1089C62.6974 40.0275 62.6812 39.9217 62.5998 39.8728L61.8837 39.3684C61.8837 39.3684 61.8024 39.3359 61.7535 39.3359C61.7047 39.3359 61.664 39.3684 61.6396 39.4091L60.4597 41.0934L60.1098 39.0673C60.0936 38.9696 60.0041 38.9127 59.9146 38.929L59.052 39.0754C59.0114 39.0836 58.9707 39.1081 58.9381 39.1487C58.9137 39.1894 58.9056 39.23 58.9056 39.2789L59.166 40.7842L54.9428 37.7328C55.0161 37.6107 55.0893 37.4887 55.1544 37.3585L68.4178 41.0772L67.4006 41.6468C67.4006 41.6468 67.3355 41.7037 67.3193 41.7526C67.303 41.7932 67.3193 41.8421 67.3355 41.8828L67.7343 42.5988C67.7831 42.6802 67.8889 42.7127 67.9702 42.6639L69.6302 41.7363L69.1094 43.559C69.1013 43.5996 69.1094 43.6485 69.1257 43.6892C69.1501 43.7299 69.1827 43.7542 69.2315 43.7705L70.0208 43.9984C70.1103 44.0228 70.2079 43.974 70.2323 43.8763L70.7531 42.0455L71.6726 43.7055C71.7214 43.7868 71.8272 43.8193 71.9086 43.7705L72.6246 43.3718C72.6246 43.3718 72.6979 43.3149 72.706 43.266C72.7223 43.2253 72.706 43.1765 72.6897 43.1358L72.112 42.0943L79.061 44.0472L76.27 45.6584C76.27 45.6584 76.2049 45.7152 76.1887 45.7641C76.1724 45.8047 76.1887 45.8536 76.2049 45.8943L76.8803 47.0661C76.8803 47.0661 76.9373 47.1311 76.9861 47.1474C77.0268 47.1556 77.0756 47.1474 77.1163 47.1311L80.0782 45.4224L79.1994 48.726C79.1912 48.7666 79.1994 48.8155 79.2156 48.8562C79.24 48.8969 79.2807 48.9213 79.3214 48.9375L80.6315 49.2875C80.721 49.3119 80.8186 49.2549 80.843 49.1654L81.7218 45.8618L83.4306 48.8236C83.4306 48.8236 83.4876 48.8888 83.5364 48.905C83.5852 48.9213 83.6259 48.905 83.6666 48.8888L84.8383 48.2133C84.9197 48.1645 84.9522 48.0588 84.9034 47.9774L83.1946 45.0237L86.4983 45.9024C86.5471 45.9106 86.5878 45.9024 86.6285 45.8861C86.6692 45.8617 86.6936 45.8292 86.7098 45.7804L87.0597 44.4703C87.0842 44.3808 87.0272 44.2831 86.9377 44.2587L86.9214 44.4134Z" fill="#699CCC"/>
<path d="M244.94 18.1224C247.495 18.1224 249.733 18.7411 251.646 19.9779C253.558 21.2147 254.949 22.9645 255.828 25.2347H252.15C251.499 23.819 250.564 22.7281 249.335 21.9633C248.106 21.1984 246.641 20.8158 244.94 20.8158C243.24 20.8158 241.824 21.1985 240.522 21.9633C239.221 22.7281 238.195 23.8104 237.454 25.2181C236.714 26.6258 236.34 28.2699 236.34 30.1576C236.34 32.0451 236.706 33.6563 237.454 35.0638C238.195 36.4716 239.221 37.5538 240.522 38.3187C241.824 39.0835 243.297 39.4662 244.94 39.4662C246.584 39.4662 248.114 39.0921 249.335 38.3353C250.555 37.5867 251.499 36.4962 252.15 35.0804H255.828C254.949 37.3261 253.558 39.0588 251.646 40.2875C249.733 41.5162 247.495 42.1263 244.94 42.1263C242.76 42.1263 240.774 41.6141 238.992 40.597C237.202 39.5799 235.794 38.156 234.761 36.3334C233.727 34.5107 233.207 32.46 233.207 30.1654C233.207 27.8708 233.727 25.8117 234.761 23.9808V23.9652C235.794 22.1344 237.202 20.7017 238.992 19.6683C240.774 18.635 242.76 18.1225 244.94 18.1224ZM188.863 20.9301H179.294V28.7738H187.854V31.3051H179.294V39.3929H188.863V41.9232H176.227V18.3988H188.863V20.9301ZM220.707 20.9301H211.138V28.7738H219.698V31.3051H211.138V39.3929H220.707V41.9232H208.07V18.3988H220.707V20.9301ZM340.027 20.9301H330.458V28.7738H339.019V31.3051H330.458V39.3929H340.027V41.9232H327.391V18.3988H340.027V20.9301ZM140.536 41.9154H137.298L135.409 36.6918H125.173L123.285 41.9154H120.047L128.542 18.5619H132.082L140.536 41.9154ZM279.367 41.9154H276.129L274.241 36.6918H264.005L262.117 41.9154H258.887L267.374 18.5619H270.913L279.367 41.9154ZM363.664 41.9154H360.426L358.538 36.6918H348.31L346.422 41.9154H343.184L351.671 18.5619H355.21L363.664 41.9154ZM105.03 18.4232C107.593 18.4232 109.807 18.9038 111.687 19.8558C113.566 20.8079 114.998 22.1748 115.999 23.9486C117 25.7225 117.496 27.8138 117.496 30.2142C117.496 32.6146 117 34.6976 115.999 36.4633C114.998 38.2289 113.558 39.5714 111.687 40.5072C109.807 41.443 107.593 41.9066 105.03 41.9066H97.7148V18.4232H105.03ZM159.657 37.0492V18.3832H162.725V41.9066H159.657L147.321 23.2084V41.9066H144.254V18.3832H147.321L159.657 37.0492ZM171.005 41.9066H167.938V18.4232H171.005V41.9066ZM196.583 39.4174H204.802V41.9066H193.516V18.4232H196.583V39.4174ZM290.653 18.4232C292.427 18.4232 293.925 18.725 295.153 19.3353C296.374 19.9456 297.293 20.759 297.896 21.7924C298.506 22.8258 298.807 24.0061 298.807 25.3324C298.807 26.9514 298.343 28.375 297.407 29.6117C296.471 30.8485 295.072 31.671 293.209 32.0697L299.108 41.9066H295.446L289.848 32.3051H286.146V41.9066H283.078V18.4232H290.653ZM310.881 18.4232C313.444 18.4232 315.657 18.9039 317.537 19.8558C319.417 20.8078 320.849 22.1748 321.85 23.9486C322.85 25.7225 323.348 27.8138 323.348 30.2142C323.348 32.6146 322.85 34.6975 321.85 36.4633C320.849 38.229 319.417 39.5714 317.537 40.5072C315.666 41.4429 313.444 41.9066 310.881 41.9066H303.574V18.4232H310.881ZM370.458 39.4174H378.677V41.9066H367.391V18.4232H370.458V39.4174ZM100.782 39.3842H105.03C108.057 39.3842 110.376 38.5788 111.971 36.976C113.566 35.373 114.363 33.1188 114.363 30.222C114.363 27.3255 113.558 25.0229 111.955 23.3793C110.352 21.7437 108.041 20.9213 105.03 20.9213H100.782V39.3842ZM306.634 39.3842H310.881C313.916 39.3842 316.227 38.579 317.822 36.976C319.417 35.373 320.215 33.1188 320.215 30.222C320.215 27.3254 319.409 25.0229 317.806 23.3793C316.195 21.7438 313.892 20.9213 310.881 20.9213H306.634V39.3842ZM126.052 34.1927H134.547L130.3 22.3295L126.052 34.1927ZM264.884 34.1927H273.379L269.131 22.3295L264.884 34.1927ZM349.188 34.1927H357.684L353.437 22.3295L349.188 34.1927ZM286.146 29.848H290.662C292.322 29.848 293.575 29.4413 294.405 28.6195C295.235 27.7978 295.649 26.7073 295.649 25.3324C295.649 23.9572 295.243 22.858 294.421 22.0931C293.599 21.3285 292.346 20.9457 290.662 20.9457H286.146V29.848Z" fill="#699CCC"/>
<path d="M137.791 51.59C139.06 51.59 140.232 51.8915 141.273 52.4855C142.307 53.0795 143.121 53.9094 143.707 54.9835C144.301 56.0494 144.594 57.2618 144.594 58.6124C144.594 59.9632 144.284 61.2405 143.674 62.3146C143.055 63.3967 142.21 64.2271 141.136 64.8048L144.813 68.1818H142.966V68.1896L139.898 65.3419C139.231 65.5372 138.523 65.6349 137.791 65.6349C136.522 65.6349 135.366 65.3334 134.333 64.7394C133.3 64.1454 132.486 63.3154 131.884 62.2413C131.29 61.1754 130.988 59.9632 130.988 58.6124C130.988 57.2617 131.29 56.0576 131.884 54.9835C132.478 53.9176 133.291 53.0795 134.333 52.4855C135.366 51.8915 136.522 51.59 137.791 51.59ZM150.809 60.4103C150.809 61.7692 151.135 62.7785 151.777 63.4376C152.428 64.0966 153.315 64.422 154.438 64.422C155.56 64.422 156.447 64.0964 157.082 63.4454C157.717 62.7945 158.034 61.7853 158.034 60.4103V51.7609H159.409V60.3947C159.409 62.1357 158.946 63.4456 158.026 64.3243C157.099 65.203 155.903 65.6426 154.422 65.6427C152.941 65.6427 151.736 65.2031 150.816 64.3243C149.889 63.4456 149.434 62.1357 149.434 60.3947V51.7609H150.809V60.4103ZM115.224 51.6066C116.493 51.6066 117.519 51.9156 118.3 52.5421C119.081 53.1604 119.528 53.966 119.65 54.9503H118.161C118.063 54.389 117.762 53.8847 117.233 53.4454C116.713 53.0061 116.004 52.7863 115.109 52.7863C114.28 52.7863 113.596 53.0061 113.043 53.4454C112.49 53.8848 112.213 54.4867 112.213 55.2433C112.213 55.821 112.368 56.285 112.669 56.6349C112.97 56.9929 113.344 57.2615 113.8 57.4406C114.247 57.6277 114.866 57.8228 115.639 58.0343C116.525 58.2784 117.249 58.5314 117.803 58.7755C118.356 59.0196 118.82 59.3856 119.194 59.882C119.577 60.3783 119.765 61.0458 119.765 61.8839C119.765 62.5264 119.593 63.1365 119.252 63.714C118.91 64.2917 118.405 64.7557 117.738 65.1056C117.071 65.4636 116.274 65.6349 115.338 65.6349C114.402 65.6349 113.637 65.4806 112.953 65.1632H112.945C112.254 64.8459 111.717 64.4143 111.318 63.8448C110.928 63.2835 110.716 62.6568 110.691 61.9572H112.147C112.213 62.6242 112.506 63.2096 113.035 63.714C113.556 64.2185 114.329 64.4708 115.338 64.4708C116.265 64.4708 117.006 64.235 117.551 63.755C118.096 63.2749 118.364 62.6728 118.364 61.9406C118.364 61.3467 118.21 60.8747 117.909 60.5167C117.608 60.1587 117.234 59.8901 116.786 59.7111C116.339 59.532 115.728 59.3364 114.938 59.1329C114.019 58.8889 113.295 58.6452 112.758 58.4093C112.221 58.1733 111.757 57.807 111.383 57.3107C111 56.8143 110.813 56.1387 110.813 55.2843C110.813 54.5764 111.001 53.9421 111.367 53.3888C111.733 52.8273 112.254 52.3956 112.921 52.0782C113.588 51.7609 114.353 51.6066 115.224 51.6066ZM101.865 51.7609C103.395 51.7609 104.558 52.119 105.331 52.8429C106.112 53.5671 106.503 54.5198 106.503 55.7159C106.503 56.9118 106.113 57.8476 105.34 58.5636H105.348C104.575 59.2796 103.411 59.6456 101.865 59.6456H99.0898V65.504H97.7148V51.7609H101.865ZM126.145 65.504H124.77V51.7609H126.145V65.504ZM166.219 65.504H164.844V51.7609H166.219V65.504ZM214.734 65.504H213.359V51.7609H214.734V65.504ZM182.32 65.4962H180.864L179.668 62.2335H173.419L172.214 65.4962H170.758L175.771 51.9318H177.324L182.32 65.4962ZM194.919 52.9005H191.103V65.4962H189.728V52.9005H185.895V51.7609H194.919V52.9005ZM203.578 51.7531C205.108 51.7531 206.272 52.1194 207.069 52.8517C207.859 53.584 208.258 54.5443 208.258 55.7404C208.258 56.7329 207.973 57.5875 207.403 58.2872C206.834 58.9869 205.987 59.4428 204.881 59.6544L208.42 65.4884H206.769V65.4962L203.367 59.7599H200.828V65.4962H199.453V51.7531H203.578ZM230.836 65.4962H229.38L228.184 62.2335H221.926L220.729 65.4962H219.273L224.286 51.9318H225.84L230.836 65.4962ZM137.799 52.8185C136.782 52.8185 135.854 53.0546 135.049 53.5265C134.235 53.9984 133.592 54.6741 133.12 55.5529C132.648 56.4315 132.412 57.4487 132.412 58.6202C132.412 59.7919 132.648 60.8095 133.12 61.6964C133.592 62.5833 134.235 63.2586 135.049 63.7306C135.862 64.2025 136.782 64.4385 137.799 64.4386C138.816 64.4386 139.736 64.2025 140.55 63.7306C141.363 63.2586 142.007 62.5833 142.479 61.6964C142.95 60.8095 143.186 59.7838 143.186 58.6202C143.186 57.4569 142.95 56.4315 142.479 55.5529C142.007 54.6741 141.363 53.9984 140.55 53.5265C139.736 53.0545 138.816 52.8185 137.799 52.8185ZM173.842 61.0939H179.261L176.552 53.6652L173.842 61.0939ZM222.333 61.0939H227.761L225.051 53.6652L222.333 61.0939ZM200.837 58.6368H203.611C204.685 58.6368 205.491 58.3763 206.036 57.8556C206.581 57.3348 206.85 56.6269 206.85 55.7482C206.85 54.8695 206.589 54.1456 206.061 53.6573C205.54 53.1691 204.71 52.9162 203.587 52.9161H200.837V58.6368ZM99.0898 58.4581H101.865C104.013 58.458 105.087 57.5379 105.087 55.7072C105.087 54.7879 104.835 54.096 104.322 53.6241C103.81 53.1523 102.988 52.9162 101.865 52.9161H99.0898V58.4581Z" fill="#699CCC"/>
</svg>
